<svg xmlns="http://www.w3.org/2000/svg" width="640" height="80" viewBox="0 0 640 80">
  <g transform="translate(0.5,0.5)" text-anchor="middle" font-size="12" font-family="sans-serif" font-weight="normal">
    <g transform="translate(4,18)">
      <g stroke="black" stroke-width="1" stroke-linecap="round">
        <line x2="631"/>
        <line y2="58"/>
        <line x2="631" y1="58" y2="58"/>
        <line x1="631" x2="631" y2="58"/>
        <line x1="611" x2="611" y2="58"/>
        <line x1="592" x2="592" y2="58"/>
        <line x1="572" x2="572" y2="58"/>
        <line x1="552" x2="552" y2="58"/>
        <line x1="532" x2="532" y2="58"/>
        <line x1="513" x2="513" y2="58"/>
        <line x1="493" x2="493" y2="58"/>
        <line x1="473" x2="473" y2="58"/>
        <line x1="454" x2="454" y2="58"/>
        <line x1="434" x2="434" y2="58"/>
        <line x1="414" x2="414" y2="58"/>
        <line x1="394" x2="394" y2="58"/>
        <line x1="375" x2="375" y2="58"/>
        <line x1="355" x2="355" y2="58"/>
        <line x1="335" x2="335" y2="58"/>
        <line x1="316" x2="316" y2="58"/>
        <line x1="296" x2="296" y2="58"/>
        <line x1="276" x2="276" y2="58"/>
        <line x1="256" x2="256" y2="58"/>
        <line x1="237" x2="237" y2="58"/>
        <line x1="217" x2="217" y2="58"/>
        <line x1="197" x2="197" y2="58"/>
        <line x1="177" x2="177" y2="58"/>
        <line x1="158" x2="158" y2="58"/>
        <line x1="138" x2="138" y2="58"/>
        <line x1="118" x2="118" y2="58"/>
        <line x1="99" x2="99" y2="58"/>
        <line x1="79" x2="79" y2="58"/>
        <line x1="59" x2="59" y2="58"/>
        <line x1="39" x2="39" y2="58"/>
        <line x1="20" x2="20" y2="58"/>
      </g>
      <g>
        <g/>
        <g transform="translate(10,-10)">
          <g transform="translate(611)">
            <text y="6">0</text>
          </g>
          <g transform="translate(592)">
            <text y="6">1</text>
          </g>
          <g transform="translate(572)">
            <text y="6">2</text>
          </g>
          <g transform="translate(552)">
            <text y="6">3</text>
          </g>
          <g transform="translate(532)">
            <text y="6">4</text>
          </g>
          <g transform="translate(513)">
            <text y="6">5</text>
          </g>
          <g transform="translate(493)">
            <text y="6">6</text>
          </g>
          <g transform="translate(473)">
            <text y="6">7</text>
          </g>
          <g transform="translate(454)">
            <text y="6">8</text>
          </g>
          <g transform="translate(434)">
            <text y="6">9</text>
          </g>
          <g transform="translate(414)">
            <text y="6">10</text>
          </g>
          <g transform="translate(394)">
            <text y="6">11</text>
          </g>
          <g transform="translate(375)">
            <text y="6">12</text>
          </g>
          <g transform="translate(355)">
            <text y="6">13</text>
          </g>
          <g transform="translate(335)">
            <text y="6">14</text>
          </g>
          <g transform="translate(316)">
            <text y="6">15</text>
          </g>
          <g transform="translate(296)">
            <text y="6">16</text>
          </g>
          <g transform="translate(276)">
            <text y="6">17</text>
          </g>
          <g transform="translate(256)">
            <text y="6">18</text>
          </g>
          <g transform="translate(237)">
            <text y="6">19</text>
          </g>
          <g transform="translate(217)">
            <text y="6">20</text>
          </g>
          <g transform="translate(197)">
            <text y="6">21</text>
          </g>
          <g transform="translate(177)">
            <text y="6">22</text>
          </g>
          <g transform="translate(158)">
            <text y="6">23</text>
          </g>
          <g transform="translate(138)">
            <text y="6">24</text>
          </g>
          <g transform="translate(118)">
            <text y="6">25</text>
          </g>
          <g transform="translate(99)">
            <text y="6">26</text>
          </g>
          <g transform="translate(79)">
            <text y="6">27</text>
          </g>
          <g transform="translate(59)">
            <text y="6">28</text>
          </g>
          <g transform="translate(39)">
            <text y="6">29</text>
          </g>
          <g transform="translate(20)">
            <text y="6">30</text>
          </g>
          <g transform="translate(0)">
            <text y="6">31</text>
          </g>
        </g>
        <g transform="translate(10,28)">
          <g transform="translate(611)">
            <text y="6" transform="rotate(-90)">
              <tspan>en_0</tspan>
            </text>
          </g>
          <g transform="translate(592)">
            <text y="6" transform="rotate(-90)">
              <tspan>en_1</tspan>
            </text>
          </g>
          <g transform="translate(572)">
            <text y="6" transform="rotate(-90)">
              <tspan>en_2</tspan>
            </text>
          </g>
          <g transform="translate(552)">
            <text y="6" transform="rotate(-90)">
              <tspan>en_3</tspan>
            </text>
          </g>
          <g transform="translate(532)">
            <text y="6" transform="rotate(-90)">
              <tspan>en_4</tspan>
            </text>
          </g>
          <g transform="translate(513)">
            <text y="6" transform="rotate(-90)">
              <tspan>en_5</tspan>
            </text>
          </g>
          <g transform="translate(493)">
            <text y="6" transform="rotate(-90)">
              <tspan>en_6</tspan>
            </text>
          </g>
          <g transform="translate(473)">
            <text y="6" transform="rotate(-90)">
              <tspan>en_7</tspan>
            </text>
          </g>
          <g transform="translate(454)">
            <text y="6" transform="rotate(-90)">
              <tspan>en_8</tspan>
            </text>
          </g>
          <g transform="translate(434)">
            <text y="6" transform="rotate(-90)">
              <tspan>en_9</tspan>
            </text>
          </g>
          <g transform="translate(414)">
            <text y="6" transform="rotate(-90)">
              <tspan>en_10</tspan>
            </text>
          </g>
          <g transform="translate(394)">
            <text y="6" transform="rotate(-90)">
              <tspan>en_11</tspan>
            </text>
          </g>
          <g transform="translate(375)">
            <text y="6" transform="rotate(-90)">
              <tspan>en_12</tspan>
            </text>
          </g>
          <g transform="translate(355)">
            <text y="6" transform="rotate(-90)">
              <tspan>en_13</tspan>
            </text>
          </g>
          <g transform="translate(335)">
            <text y="6" transform="rotate(-90)">
              <tspan>en_14</tspan>
            </text>
          </g>
          <g transform="translate(316)">
            <text y="6" transform="rotate(-90)">
              <tspan>en_15</tspan>
            </text>
          </g>
          <g transform="translate(296)">
            <text y="6" transform="rotate(-90)">
              <tspan>en_16</tspan>
            </text>
          </g>
          <g transform="translate(276)">
            <text y="6" transform="rotate(-90)">
              <tspan>en_17</tspan>
            </text>
          </g>
          <g transform="translate(256)">
            <text y="6" transform="rotate(-90)">
              <tspan>en_18</tspan>
            </text>
          </g>
          <g transform="translate(237)">
            <text y="6" transform="rotate(-90)">
              <tspan>en_19</tspan>
            </text>
          </g>
          <g transform="translate(217)">
            <text y="6" transform="rotate(-90)">
              <tspan>en_20</tspan>
            </text>
          </g>
          <g transform="translate(197)">
            <text y="6" transform="rotate(-90)">
              <tspan>en_21</tspan>
            </text>
          </g>
          <g transform="translate(177)">
            <text y="6" transform="rotate(-90)">
              <tspan>en_22</tspan>
            </text>
          </g>
          <g transform="translate(158)">
            <text y="6" transform="rotate(-90)">
              <tspan>en_23</tspan>
            </text>
          </g>
          <g transform="translate(138)">
            <text y="6" transform="rotate(-90)">
              <tspan>en_24</tspan>
            </text>
          </g>
          <g transform="translate(118)">
            <text y="6" transform="rotate(-90)">
              <tspan>en_25</tspan>
            </text>
          </g>
          <g transform="translate(99)">
            <text y="6" transform="rotate(-90)">
              <tspan>en_26</tspan>
            </text>
          </g>
          <g transform="translate(79)">
            <text y="6" transform="rotate(-90)">
              <tspan>en_27</tspan>
            </text>
          </g>
          <g transform="translate(59)">
            <text y="6" transform="rotate(-90)">
              <tspan>en_28</tspan>
            </text>
          </g>
          <g transform="translate(39)">
            <text y="6" transform="rotate(-90)">
              <tspan>en_29</tspan>
            </text>
          </g>
          <g transform="translate(20)">
            <text y="6" transform="rotate(-90)">
              <tspan>en_30</tspan>
            </text>
          </g>
          <g transform="translate(0)">
            <text y="6" transform="rotate(-90)">
              <tspan>en_31</tspan>
            </text>
          </g>
        </g>
        <g transform="translate(10,64)"/>
      </g>
    </g>
  </g>
</svg>

